<mxfile host="app.diagrams.net" modified="2024-05-28T17:28:41.495Z" agent="Mozilla/5.0 (Macintosh; Intel Mac OS X 10_15_7) AppleWebKit/537.36 (KHTML, like Gecko) Chrome/125.0.0.0 Safari/537.36" version="24.4.9" etag="QcI4MJ8hqihsomwOYawY" type="device">
  <diagram name="Page-1" id="G8VAYLe1_RYuiwfTPHED">
    <mxGraphModel dx="10828" dy="5530" grid="1" gridSize="10" guides="1" tooltips="1" connect="1" arrows="1" fold="1" page="1" pageScale="1" pageWidth="827" pageHeight="1169" math="0" shadow="0">
      <root>
        <mxCell id="0" />
        <mxCell id="1" parent="0" />
        <mxCell id="vujtRCiMRTFm4s1cb2ud-12" value="" style="html=1;jettySize=18;whiteSpace=wrap;fontSize=13.3;fontColor=#333333;fontStyle=1;strokeColor=#3a414a;strokeOpacity=100;strokeWidth=0.8;rounded=1;arcSize=12;edgeStyle=orthogonalEdgeStyle;startArrow=none;endArrow=block;endFill=1;entryX=1.006;entryY=0.5;entryPerimeter=0;lucidId=L41EHP-fWZIB;shadow=1;fillColor=#FFFFFF;" edge="1" parent="1">
          <mxGeometry width="100" height="100" relative="1" as="geometry">
            <Array as="points">
              <mxPoint x="-7320.72" y="-3130.33" />
              <mxPoint x="-7320.72" y="-3130.33" />
            </Array>
            <mxPoint x="-7460.000000000001" y="-3130.33" as="targetPoint" />
            <mxPoint x="-7340.72" y="-3130.33" as="sourcePoint" />
          </mxGeometry>
        </mxCell>
        <mxCell id="vujtRCiMRTFm4s1cb2ud-13" value="No" style="text;html=1;resizable=0;labelBackgroundColor=default;align=center;verticalAlign=middle;fontStyle=1;fontColor=#333333;fontSize=13.3;shadow=1;fillColor=#FFFFFF;" vertex="1" parent="vujtRCiMRTFm4s1cb2ud-12">
          <mxGeometry relative="1" as="geometry" />
        </mxCell>
        <mxCell id="2zXYT1LvfEtl15NbrZRE-309" value="" style="endArrow=classic;html=1;rounded=0;entryX=0;entryY=0.5;entryDx=0;entryDy=0;exitX=0.971;exitY=0.498;exitDx=0;exitDy=0;exitPerimeter=0;" parent="1" source="2zXYT1LvfEtl15NbrZRE-212" target="2zXYT1LvfEtl15NbrZRE-218" edge="1">
          <mxGeometry width="50" height="50" relative="1" as="geometry">
            <mxPoint x="-8281" y="-3585" as="sourcePoint" />
            <mxPoint x="-8181" y="-3675" as="targetPoint" />
          </mxGeometry>
        </mxCell>
        <mxCell id="2zXYT1LvfEtl15NbrZRE-310" value="&lt;b&gt;Yes&lt;/b&gt;" style="edgeLabel;html=1;align=center;verticalAlign=middle;resizable=0;points=[];" parent="2zXYT1LvfEtl15NbrZRE-309" vertex="1" connectable="0">
          <mxGeometry relative="1" as="geometry">
            <mxPoint as="offset" />
          </mxGeometry>
        </mxCell>
        <mxCell id="2zXYT1LvfEtl15NbrZRE-153" value="Path to file" style="html=1;overflow=block;blockSpacing=1;whiteSpace=wrap;shape=parallelogram;perimeter=parallelogramPerimeter;anchorPointDirection=0;fontSize=16.7;spacing=3.8;strokeColor=#1F1F1F;rounded=1;absoluteArcSize=1;arcSize=9;fillColor=#FFFFFF;strokeWidth=NaN;lucidId=tX1EERvf6c6.;shadow=1;" parent="1" vertex="1">
          <mxGeometry x="-9142.5" y="-4370" width="125" height="90" as="geometry" />
        </mxCell>
        <mxCell id="2zXYT1LvfEtl15NbrZRE-154" value="Parser" style="html=1;overflow=block;blockSpacing=1;whiteSpace=wrap;fontSize=16.7;spacing=3.8;strokeColor=#191919;rounded=1;absoluteArcSize=1;arcSize=9;fillColor=#FFFFFF;strokeWidth=NaN;lucidId=8X1EvFZcRXwY;shadow=1;" parent="1" vertex="1">
          <mxGeometry x="-9140" y="-4505" width="120" height="60" as="geometry" />
        </mxCell>
        <mxCell id="2zXYT1LvfEtl15NbrZRE-155" value="" style="html=1;jettySize=18;whiteSpace=wrap;fontSize=13;strokeColor=#3a414a;strokeOpacity=100;strokeWidth=0.8;rounded=1;arcSize=12;edgeStyle=orthogonalEdgeStyle;startArrow=none;endArrow=block;endFill=1;exitX=0.5;exitY=1.013;exitPerimeter=0;entryX=0.5;entryY=-0.008;entryPerimeter=0;lucidId=fY1E9Mrzamgz;shadow=1;fillColor=#FFFFFF;" parent="1" source="2zXYT1LvfEtl15NbrZRE-154" target="2zXYT1LvfEtl15NbrZRE-153" edge="1">
          <mxGeometry width="100" height="100" relative="1" as="geometry">
            <Array as="points" />
          </mxGeometry>
        </mxCell>
        <mxCell id="2zXYT1LvfEtl15NbrZRE-156" value="Open file and assign an fd to it" style="html=1;overflow=block;blockSpacing=1;whiteSpace=wrap;fontSize=16.7;spacing=9;strokeColor=#0F0F0F;rounded=1;absoluteArcSize=1;arcSize=9;fillColor=#FFFFFF;strokeWidth=NaN;lucidId=9Y1EQ6iKpvZG;shadow=1;" parent="1" vertex="1">
          <mxGeometry x="-9140" y="-4220" width="120" height="90" as="geometry" />
        </mxCell>
        <mxCell id="2zXYT1LvfEtl15NbrZRE-157" value="" style="html=1;jettySize=18;whiteSpace=wrap;fontSize=13;strokeColor=#3a414a;strokeOpacity=100;strokeWidth=0.8;rounded=1;arcSize=12;edgeStyle=orthogonalEdgeStyle;startArrow=none;endArrow=block;endFill=1;exitX=0.5;exitY=1.008;exitPerimeter=0;entryX=0.5;entryY=-0.008;entryPerimeter=0;lucidId=gZ1E.NQWFwqV;shadow=1;fillColor=#FFFFFF;" parent="1" source="2zXYT1LvfEtl15NbrZRE-153" target="2zXYT1LvfEtl15NbrZRE-156" edge="1">
          <mxGeometry width="100" height="100" relative="1" as="geometry">
            <Array as="points" />
          </mxGeometry>
        </mxCell>
        <mxCell id="2zXYT1LvfEtl15NbrZRE-158" value="Can the file be read?" style="html=1;overflow=block;blockSpacing=1;whiteSpace=wrap;rhombus;fontSize=16.7;spacing=9;strokeColor=#0F0F0F;rounded=1;absoluteArcSize=1;arcSize=9;fillColor=#FFE599;strokeWidth=NaN;lucidId=jZ1E-DMXvh1~;shadow=1;align=center;verticalAlign=middle;fontFamily=Helvetica;fontColor=default;" parent="1" vertex="1">
          <mxGeometry x="-9140" y="-4070" width="120" height="90" as="geometry" />
        </mxCell>
        <mxCell id="2zXYT1LvfEtl15NbrZRE-159" value="" style="html=1;jettySize=18;whiteSpace=wrap;fontSize=13;strokeColor=#3a414a;strokeOpacity=100;strokeWidth=0.8;rounded=1;arcSize=12;edgeStyle=orthogonalEdgeStyle;startArrow=none;endArrow=block;endFill=1;exitX=0.475;exitY=1.008;exitPerimeter=0;entryX=0.475;entryY=0.016;entryPerimeter=0;lucidId=oZ1EE4hA0qJZ;shadow=1;fillColor=#FFFFFF;" parent="1" source="2zXYT1LvfEtl15NbrZRE-156" target="2zXYT1LvfEtl15NbrZRE-158" edge="1">
          <mxGeometry width="100" height="100" relative="1" as="geometry">
            <Array as="points" />
          </mxGeometry>
        </mxCell>
        <mxCell id="2zXYT1LvfEtl15NbrZRE-160" value="" style="html=1;jettySize=18;whiteSpace=wrap;fontSize=13.3;fontColor=#333333;fontStyle=1;strokeColor=#3a414a;strokeOpacity=100;strokeWidth=0.8;rounded=1;arcSize=12;edgeStyle=orthogonalEdgeStyle;startArrow=none;endArrow=block;endFill=1;exitX=0.012;exitY=0.5;exitPerimeter=0;entryX=1.006;entryY=0.5;entryPerimeter=0;lucidId=L41EHP-fWZIB;shadow=1;fillColor=#FFFFFF;" parent="1" source="2zXYT1LvfEtl15NbrZRE-158" edge="1">
          <mxGeometry width="100" height="100" relative="1" as="geometry">
            <Array as="points" />
            <mxPoint x="-9439.28" y="-4025" as="targetPoint" />
          </mxGeometry>
        </mxCell>
        <mxCell id="2zXYT1LvfEtl15NbrZRE-161" value="No" style="text;html=1;resizable=0;labelBackgroundColor=default;align=center;verticalAlign=middle;fontStyle=1;fontColor=#333333;fontSize=13.3;shadow=1;fillColor=#FFFFFF;" parent="2zXYT1LvfEtl15NbrZRE-160" vertex="1">
          <mxGeometry relative="1" as="geometry" />
        </mxCell>
        <mxCell id="2zXYT1LvfEtl15NbrZRE-162" value="" style="html=1;jettySize=18;whiteSpace=wrap;fontSize=13.3;fontColor=#333333;fontStyle=1;strokeColor=#3a414a;strokeOpacity=100;strokeWidth=0.8;rounded=1;arcSize=12;edgeStyle=orthogonalEdgeStyle;startArrow=none;endArrow=block;endFill=1;exitX=0.5;exitY=0.992;exitPerimeter=0;entryX=0.5;entryY=-0.008;entryPerimeter=0;lucidId=T41EOPp2TYkA;shadow=1;fillColor=#FFFFFF;" parent="1" source="2zXYT1LvfEtl15NbrZRE-158" target="2zXYT1LvfEtl15NbrZRE-174" edge="1">
          <mxGeometry width="100" height="100" relative="1" as="geometry">
            <Array as="points" />
          </mxGeometry>
        </mxCell>
        <mxCell id="2zXYT1LvfEtl15NbrZRE-163" value="Yes" style="text;html=1;resizable=0;labelBackgroundColor=default;align=center;verticalAlign=middle;fontStyle=1;fontColor=#333333;fontSize=13.3;shadow=1;fillColor=#FFFFFF;" parent="2zXYT1LvfEtl15NbrZRE-162" vertex="1">
          <mxGeometry relative="1" as="geometry" />
        </mxCell>
        <mxCell id="2zXYT1LvfEtl15NbrZRE-165" value="&lt;font style=&quot;font-size: 12px;&quot;&gt;Are Configs ok and all set?&lt;/font&gt;" style="html=1;overflow=block;blockSpacing=1;whiteSpace=wrap;rhombus;fontSize=16.7;spacing=9;strokeColor=#0F0F0F;rounded=1;absoluteArcSize=1;arcSize=9;fillColor=#FFE599;strokeWidth=NaN;lucidId=P91EEz4N1odR;shadow=1;align=center;verticalAlign=middle;fontFamily=Helvetica;fontColor=default;" parent="1" vertex="1">
          <mxGeometry x="-9140" y="-3725" width="120" height="90" as="geometry" />
        </mxCell>
        <mxCell id="2zXYT1LvfEtl15NbrZRE-166" value="" style="html=1;jettySize=18;whiteSpace=wrap;fontSize=13;strokeColor=#3a414a;strokeOpacity=100;strokeWidth=0.8;rounded=1;arcSize=12;edgeStyle=orthogonalEdgeStyle;startArrow=none;endArrow=block;endFill=1;exitX=0.5;exitY=1.008;exitPerimeter=0;entryX=0.5;entryY=0.008;entryPerimeter=0;lucidId=591E4BKJysrq;shadow=1;fillColor=#FFFFFF;" parent="1" source="2zXYT1LvfEtl15NbrZRE-174" target="2zXYT1LvfEtl15NbrZRE-165" edge="1">
          <mxGeometry width="100" height="100" relative="1" as="geometry">
            <Array as="points" />
          </mxGeometry>
        </mxCell>
        <mxCell id="2zXYT1LvfEtl15NbrZRE-167" value="" style="html=1;jettySize=18;whiteSpace=wrap;fontSize=13.3;fontColor=#333333;fontStyle=1;strokeColor=#3a414a;strokeOpacity=100;strokeWidth=0.8;rounded=1;arcSize=12;edgeStyle=orthogonalEdgeStyle;startArrow=none;endArrow=block;endFill=1;exitX=0.5;exitY=0.992;exitPerimeter=0;entryX=0.5;entryY=-0.008;entryPerimeter=0;lucidId=J-1Egq0q3Oak;shadow=1;fillColor=#FFFFFF;" parent="1" source="2zXYT1LvfEtl15NbrZRE-165" target="2zXYT1LvfEtl15NbrZRE-175" edge="1">
          <mxGeometry width="100" height="100" relative="1" as="geometry">
            <Array as="points" />
          </mxGeometry>
        </mxCell>
        <mxCell id="2zXYT1LvfEtl15NbrZRE-168" value="Yes" style="text;html=1;resizable=0;labelBackgroundColor=default;align=center;verticalAlign=middle;fontStyle=1;fontColor=#333333;fontSize=13.3;shadow=1;fillColor=#FFFFFF;" parent="2zXYT1LvfEtl15NbrZRE-167" vertex="1">
          <mxGeometry relative="1" as="geometry" />
        </mxCell>
        <mxCell id="2zXYT1LvfEtl15NbrZRE-169" value="" style="html=1;jettySize=18;whiteSpace=wrap;fontSize=13.3;fontColor=#333333;fontStyle=1;strokeColor=#3a414a;strokeOpacity=100;strokeWidth=0.8;rounded=1;arcSize=12;edgeStyle=orthogonalEdgeStyle;startArrow=none;endArrow=block;endFill=1;exitX=0.012;exitY=0.5;exitPerimeter=0;entryX=1.006;entryY=0.5;entryPerimeter=0;lucidId=L-1ENJcQgKqW;shadow=1;fillColor=#FFFFFF;" parent="1" source="2zXYT1LvfEtl15NbrZRE-165" target="2zXYT1LvfEtl15NbrZRE-171" edge="1">
          <mxGeometry width="100" height="100" relative="1" as="geometry">
            <Array as="points" />
          </mxGeometry>
        </mxCell>
        <mxCell id="2zXYT1LvfEtl15NbrZRE-170" value="No" style="text;html=1;resizable=0;labelBackgroundColor=default;align=center;verticalAlign=middle;fontStyle=1;fontColor=#333333;fontSize=13.3;shadow=1;fillColor=#FFFFFF;" parent="2zXYT1LvfEtl15NbrZRE-169" vertex="1">
          <mxGeometry relative="1" as="geometry" />
        </mxCell>
        <mxCell id="2zXYT1LvfEtl15NbrZRE-171" value="Close fd" style="html=1;overflow=block;blockSpacing=1;whiteSpace=wrap;fontSize=16.7;spacing=9;strokeColor=#0F0F0F;rounded=1;absoluteArcSize=1;arcSize=9;fillColor=default;strokeWidth=NaN;lucidId=X-1ERLz-kwwG;shadow=1;align=center;verticalAlign=middle;fontFamily=Helvetica;fontColor=default;" parent="1" vertex="1">
          <mxGeometry x="-9365" y="-3725" width="120" height="90" as="geometry" />
        </mxCell>
        <mxCell id="2zXYT1LvfEtl15NbrZRE-172" value="" style="html=1;jettySize=18;whiteSpace=wrap;fontSize=13;strokeColor=#3a414a;strokeOpacity=100;strokeWidth=0.8;rounded=1;arcSize=12;edgeStyle=orthogonalEdgeStyle;startArrow=none;endArrow=block;endFill=1;exitX=-0.006;exitY=0.537;exitPerimeter=0;entryX=1.006;entryY=0.5;entryPerimeter=0;lucidId=k_1ESQMdL1Da;shadow=1;fillColor=#FFFFFF;" parent="1" source="2zXYT1LvfEtl15NbrZRE-171" edge="1">
          <mxGeometry width="100" height="100" relative="1" as="geometry">
            <Array as="points" />
            <mxPoint x="-9439.28" y="-3677" as="targetPoint" />
          </mxGeometry>
        </mxCell>
        <mxCell id="2zXYT1LvfEtl15NbrZRE-174" value="Parse Configs" style="html=1;overflow=block;blockSpacing=1;whiteSpace=wrap;ellipse;fontSize=16.7;spacing=9;strokeColor=#0F0F0F;rounded=1;absoluteArcSize=1;arcSize=9;fillColor=#FFFFFF;strokeWidth=NaN;lucidId=5b2EtWOqxYSE;shadow=1;align=center;verticalAlign=middle;fontFamily=Helvetica;fontColor=default;" parent="1" vertex="1">
          <mxGeometry x="-9125" y="-3890" width="90" height="90" as="geometry" />
        </mxCell>
        <mxCell id="2zXYT1LvfEtl15NbrZRE-175" value="Parse Map" style="html=1;overflow=block;blockSpacing=1;whiteSpace=wrap;ellipse;fontSize=16.7;spacing=9;strokeColor=#0F0F0F;rounded=1;absoluteArcSize=1;arcSize=9;fillColor=default;strokeWidth=NaN;lucidId=Gc2E4YuQoAFh;shadow=1;align=center;verticalAlign=middle;fontFamily=Helvetica;fontColor=default;" parent="1" vertex="1">
          <mxGeometry x="-9125" y="-3560" width="90" height="90" as="geometry" />
        </mxCell>
        <mxCell id="2zXYT1LvfEtl15NbrZRE-176" value="" style="html=1;jettySize=18;whiteSpace=wrap;fontSize=13.3;fontColor=#333333;fontStyle=1;strokeColor=#3a414a;strokeOpacity=100;strokeWidth=0.8;rounded=1;arcSize=12;edgeStyle=orthogonalEdgeStyle;startArrow=none;endArrow=block;endFill=1;entryX=1.006;entryY=0.5;entryPerimeter=0;lucidId=Rg2EqPA1Ob1g;shadow=1;fillColor=#FFFFFF;" parent="1" target="2zXYT1LvfEtl15NbrZRE-178" edge="1">
          <mxGeometry width="100" height="100" relative="1" as="geometry">
            <Array as="points" />
            <mxPoint x="-9140" y="-3350" as="sourcePoint" />
          </mxGeometry>
        </mxCell>
        <mxCell id="2zXYT1LvfEtl15NbrZRE-177" value="No" style="text;html=1;resizable=0;labelBackgroundColor=default;align=center;verticalAlign=middle;fontStyle=1;fontColor=#333333;fontSize=13.3;shadow=1;fillColor=#FFFFFF;" parent="2zXYT1LvfEtl15NbrZRE-176" vertex="1">
          <mxGeometry relative="1" as="geometry" />
        </mxCell>
        <mxCell id="2zXYT1LvfEtl15NbrZRE-178" value="Close fd and free configs" style="html=1;overflow=block;blockSpacing=1;whiteSpace=wrap;fontSize=16.7;spacing=9;strokeColor=#0F0F0F;rounded=1;absoluteArcSize=1;arcSize=9;fillColor=default;strokeWidth=NaN;lucidId=Rg2ElkVCbIPI;shadow=1;align=center;verticalAlign=middle;fontFamily=Helvetica;fontColor=default;" parent="1" vertex="1">
          <mxGeometry x="-9380" y="-3395" width="120" height="90" as="geometry" />
        </mxCell>
        <mxCell id="2zXYT1LvfEtl15NbrZRE-179" value="" style="html=1;jettySize=18;whiteSpace=wrap;fontSize=13;strokeColor=#3a414a;strokeOpacity=100;strokeWidth=0.8;rounded=1;arcSize=12;edgeStyle=orthogonalEdgeStyle;startArrow=none;endArrow=block;endFill=1;exitX=-0.006;exitY=0.537;exitPerimeter=0;entryX=1.006;entryY=0.5;entryPerimeter=0;lucidId=Rg2E13m-nYn4;shadow=1;fillColor=#FFFFFF;" parent="1" source="2zXYT1LvfEtl15NbrZRE-178" edge="1">
          <mxGeometry width="100" height="100" relative="1" as="geometry">
            <Array as="points" />
            <mxPoint x="-9439.28" y="-3347" as="targetPoint" />
          </mxGeometry>
        </mxCell>
        <mxCell id="2zXYT1LvfEtl15NbrZRE-181" value="&lt;font style=&quot;font-size: 14px;&quot;&gt;is the map is valid?&lt;/font&gt;" style="html=1;overflow=block;blockSpacing=1;whiteSpace=wrap;rhombus;fontSize=16.7;spacing=9;strokeColor=#0F0F0F;rounded=1;absoluteArcSize=1;arcSize=9;fillColor=#FFE599;strokeWidth=NaN;lucidId=nh2EbcO54-9p;shadow=1;align=center;verticalAlign=middle;fontFamily=Helvetica;fontColor=default;" parent="1" vertex="1">
          <mxGeometry x="-9141" y="-3395" width="120" height="90" as="geometry" />
        </mxCell>
        <mxCell id="2zXYT1LvfEtl15NbrZRE-182" value="" style="html=1;jettySize=18;whiteSpace=wrap;fontSize=13.3;fontColor=#333333;fontStyle=1;strokeColor=#3a414a;strokeOpacity=100;strokeWidth=0.8;rounded=1;arcSize=12;edgeStyle=orthogonalEdgeStyle;startArrow=none;endArrow=block;endFill=1;exitX=0.5;exitY=1.008;exitPerimeter=0;entryX=0.5;entryY=0.008;entryPerimeter=0;lucidId=rh2Emg99FGSk;shadow=1;fillColor=#FFFFFF;" parent="1" source="2zXYT1LvfEtl15NbrZRE-175" target="2zXYT1LvfEtl15NbrZRE-181" edge="1">
          <mxGeometry width="100" height="100" relative="1" as="geometry">
            <Array as="points" />
          </mxGeometry>
        </mxCell>
        <mxCell id="2zXYT1LvfEtl15NbrZRE-184" value="" style="html=1;jettySize=18;whiteSpace=wrap;fontSize=13.3;fontColor=#333333;fontStyle=1;strokeColor=#3a414a;strokeOpacity=100;strokeWidth=0.8;rounded=1;arcSize=12;edgeStyle=orthogonalEdgeStyle;startArrow=none;endArrow=block;endFill=1;exitX=0.5;exitY=0.992;exitPerimeter=0;entryX=0.5;entryY=-0.008;entryPerimeter=0;lucidId=ii2ES7uEfwXA;shadow=1;fillColor=#FFFFFF;" parent="1" source="2zXYT1LvfEtl15NbrZRE-181" target="2zXYT1LvfEtl15NbrZRE-186" edge="1">
          <mxGeometry width="100" height="100" relative="1" as="geometry">
            <Array as="points" />
          </mxGeometry>
        </mxCell>
        <mxCell id="2zXYT1LvfEtl15NbrZRE-185" value="Yes" style="text;html=1;resizable=0;labelBackgroundColor=default;align=center;verticalAlign=middle;fontStyle=1;fontColor=#333333;fontSize=13.3;shadow=1;fillColor=#FFFFFF;" parent="2zXYT1LvfEtl15NbrZRE-184" vertex="1">
          <mxGeometry x="-0.1086362966495954" relative="1" as="geometry" />
        </mxCell>
        <mxCell id="2zXYT1LvfEtl15NbrZRE-186" value="Close fd" style="html=1;overflow=block;blockSpacing=1;whiteSpace=wrap;fontSize=16.7;spacing=9;strokeColor=#0F0F0F;rounded=1;absoluteArcSize=1;arcSize=9;fillColor=default;strokeWidth=NaN;lucidId=Pi2EEIOk-zC4;shadow=1;align=center;verticalAlign=middle;fontFamily=Helvetica;fontColor=default;" parent="1" vertex="1">
          <mxGeometry x="-9140" y="-3230" width="120" height="90" as="geometry" />
        </mxCell>
        <mxCell id="2zXYT1LvfEtl15NbrZRE-187" value="" style="html=1;jettySize=18;whiteSpace=wrap;fontSize=13.3;fontColor=#333333;fontStyle=1;strokeColor=#3a414a;strokeOpacity=100;strokeWidth=0.8;rounded=1;arcSize=12;edgeStyle=orthogonalEdgeStyle;startArrow=none;endArrow=block;endFill=1;exitX=0.5;exitY=1.008;exitPerimeter=0;entryX=0.5;entryY=-0.012;entryPerimeter=0;lucidId=-i2EehJ8-~kH;shadow=1;fillColor=#FFFFFF;" parent="1" source="2zXYT1LvfEtl15NbrZRE-186" edge="1">
          <mxGeometry width="100" height="100" relative="1" as="geometry">
            <Array as="points" />
            <mxPoint x="-9080" y="-3065.7200000000003" as="targetPoint" />
          </mxGeometry>
        </mxCell>
        <mxCell id="2zXYT1LvfEtl15NbrZRE-188" value="Yes" style="text;html=1;resizable=0;labelBackgroundColor=default;align=center;verticalAlign=middle;fontStyle=1;fontColor=#333333;fontSize=13.3;shadow=1;fillColor=#FFFFFF;" parent="2zXYT1LvfEtl15NbrZRE-187" vertex="1">
          <mxGeometry relative="1" as="geometry" />
        </mxCell>
        <mxCell id="2zXYT1LvfEtl15NbrZRE-190" value="Parse Configs" style="html=1;overflow=block;blockSpacing=1;whiteSpace=wrap;ellipse;fontSize=16.7;spacing=9;strokeColor=#0F0F0F;rounded=1;absoluteArcSize=1;arcSize=9;fillColor=default;strokeWidth=NaN;lucidId=gk2EtrsDHjCQ;shadow=1;align=center;verticalAlign=middle;fontFamily=Helvetica;fontColor=default;" parent="1" vertex="1">
          <mxGeometry x="-8385" y="-4515" width="90" height="90" as="geometry" />
        </mxCell>
        <mxCell id="2zXYT1LvfEtl15NbrZRE-191" value="Parse Maps" style="html=1;overflow=block;blockSpacing=1;whiteSpace=wrap;ellipse;fontSize=16.7;spacing=9;strokeColor=#0F0F0F;rounded=1;absoluteArcSize=1;arcSize=9;fillColor=default;strokeWidth=NaN;lucidId=lk2Es3zEy-bU;shadow=1;align=center;verticalAlign=middle;fontFamily=Helvetica;fontColor=default;" parent="1" vertex="1">
          <mxGeometry x="-6635" y="-4520" width="90" height="90" as="geometry" />
        </mxCell>
        <mxCell id="2zXYT1LvfEtl15NbrZRE-192" value="" style="html=1;jettySize=18;whiteSpace=wrap;fontSize=13;strokeColor=#3a414a;strokeOpacity=100;strokeWidth=0.8;rounded=1;arcSize=12;edgeStyle=orthogonalEdgeStyle;startArrow=none;endArrow=block;endFill=1;exitX=0.5;exitY=1.008;exitPerimeter=0;entryX=0.5;entryY=-0.008;entryPerimeter=0;lucidId=Am2EB6RAnDnQ;shadow=1;fillColor=#FFFFFF;" parent="1" source="2zXYT1LvfEtl15NbrZRE-190" target="2zXYT1LvfEtl15NbrZRE-196" edge="1">
          <mxGeometry width="100" height="100" relative="1" as="geometry">
            <Array as="points" />
          </mxGeometry>
        </mxCell>
        <mxCell id="2zXYT1LvfEtl15NbrZRE-193" value="Parse  Colors" style="html=1;overflow=block;blockSpacing=1;whiteSpace=wrap;ellipse;fontSize=16.7;spacing=9;strokeColor=#0F0F0F;rounded=1;absoluteArcSize=1;arcSize=9;fillColor=default;strokeWidth=NaN;lucidId=0p2EjCjO9lcb;shadow=1;align=center;verticalAlign=middle;fontFamily=Helvetica;fontColor=default;" parent="1" vertex="1">
          <mxGeometry x="-8405" y="-3155" width="90" height="90" as="geometry" />
        </mxCell>
        <mxCell id="2zXYT1LvfEtl15NbrZRE-194" value="Parse Texture" style="html=1;overflow=block;blockSpacing=1;whiteSpace=wrap;ellipse;fontSize=16.7;spacing=9;strokeColor=#0F0F0F;rounded=1;absoluteArcSize=1;arcSize=9;fillColor=default;strokeWidth=NaN;lucidId=nq2E5vRq3FHv;shadow=1;align=center;verticalAlign=middle;fontFamily=Helvetica;fontColor=default;" parent="1" vertex="1">
          <mxGeometry x="-7315" y="-3475" width="90" height="90" as="geometry" />
        </mxCell>
        <mxCell id="2zXYT1LvfEtl15NbrZRE-195" value="GNL" style="html=1;overflow=block;blockSpacing=1;whiteSpace=wrap;fontSize=16.7;spacing=9;strokeColor=#0F0F0F;rounded=1;absoluteArcSize=1;arcSize=9;fillColor=default;strokeWidth=NaN;lucidId=Br2EVASeQrbh;shadow=1;align=center;verticalAlign=middle;fontFamily=Helvetica;fontColor=default;" parent="1" vertex="1">
          <mxGeometry x="-8430" y="-4215" width="170" height="90" as="geometry" />
        </mxCell>
        <mxCell id="2zXYT1LvfEtl15NbrZRE-196" value="fd" style="html=1;overflow=block;blockSpacing=1;whiteSpace=wrap;shape=parallelogram;perimeter=parallelogramPerimeter;anchorPointDirection=0;fontSize=16.7;spacing=9;strokeColor=#0F0F0F;rounded=1;absoluteArcSize=1;arcSize=9;fillColor=default;strokeWidth=NaN;lucidId=xs2E~~Kp~wA9;shadow=1;align=center;verticalAlign=middle;fontFamily=Helvetica;fontColor=default;" parent="1" vertex="1">
          <mxGeometry x="-8400" y="-4365" width="120" height="90" as="geometry" />
        </mxCell>
        <mxCell id="2zXYT1LvfEtl15NbrZRE-197" value="" style="html=1;jettySize=18;whiteSpace=wrap;fontSize=13;strokeColor=#3a414a;strokeOpacity=100;strokeWidth=0.8;rounded=1;arcSize=12;edgeStyle=orthogonalEdgeStyle;startArrow=none;endArrow=block;endFill=1;exitX=0.464;exitY=1.008;exitPerimeter=0;entryX=0.5;entryY=-0.008;entryPerimeter=0;lucidId=Ts2EgLEbwrsA;shadow=1;fillColor=#FFFFFF;" parent="1" source="2zXYT1LvfEtl15NbrZRE-196" target="2zXYT1LvfEtl15NbrZRE-195" edge="1">
          <mxGeometry width="100" height="100" relative="1" as="geometry">
            <Array as="points" />
          </mxGeometry>
        </mxCell>
        <mxCell id="2zXYT1LvfEtl15NbrZRE-198" value="" style="html=1;jettySize=18;whiteSpace=wrap;fontSize=13;strokeColor=#3a414a;strokeOpacity=100;strokeWidth=0.8;rounded=1;arcSize=12;edgeStyle=orthogonalEdgeStyle;startArrow=none;endArrow=block;endFill=1;exitX=0.5;exitY=1.008;exitPerimeter=0;entryX=0.5;entryY=0.008;entryPerimeter=0;lucidId=Kv2EEDhD.AjN;shadow=1;fillColor=#FFFFFF;" parent="1" source="2zXYT1LvfEtl15NbrZRE-195" target="2zXYT1LvfEtl15NbrZRE-199" edge="1">
          <mxGeometry width="100" height="100" relative="1" as="geometry">
            <Array as="points" />
          </mxGeometry>
        </mxCell>
        <mxCell id="2zXYT1LvfEtl15NbrZRE-199" value="Is line empty?" style="html=1;overflow=block;blockSpacing=1;whiteSpace=wrap;rhombus;fontSize=16.7;spacing=9;strokeColor=#0F0F0F;rounded=1;absoluteArcSize=1;arcSize=9;fillColor=#FFE599;strokeWidth=NaN;lucidId=Qv2EJP8SVrOe;shadow=1;align=center;verticalAlign=middle;fontFamily=Helvetica;fontColor=default;" parent="1" vertex="1">
          <mxGeometry x="-8405" y="-4035" width="120" height="90" as="geometry" />
        </mxCell>
        <mxCell id="2zXYT1LvfEtl15NbrZRE-200" value="" style="html=1;jettySize=18;whiteSpace=wrap;fontSize=13.3;fontColor=#333333;fontStyle=1;strokeColor=#3a414a;strokeOpacity=100;strokeWidth=0.8;rounded=1;arcSize=12;edgeStyle=orthogonalEdgeStyle;startArrow=none;endArrow=block;endFill=1;exitX=0.012;exitY=0.5;exitPerimeter=0;entryX=0.5;entryY=0.992;entryPerimeter=0;lucidId=dw2EzXaGVpmR;shadow=1;fillColor=#FFFFFF;" parent="1" source="2zXYT1LvfEtl15NbrZRE-199" target="2zXYT1LvfEtl15NbrZRE-204" edge="1">
          <mxGeometry width="100" height="100" relative="1" as="geometry">
            <Array as="points" />
          </mxGeometry>
        </mxCell>
        <mxCell id="2zXYT1LvfEtl15NbrZRE-201" value="Yes" style="text;html=1;resizable=0;labelBackgroundColor=default;align=center;verticalAlign=middle;fontStyle=1;fontColor=#333333;fontSize=13.3;shadow=1;fillColor=#FFFFFF;" parent="2zXYT1LvfEtl15NbrZRE-200" vertex="1">
          <mxGeometry relative="1" as="geometry" />
        </mxCell>
        <mxCell id="2zXYT1LvfEtl15NbrZRE-202" value="" style="html=1;jettySize=18;whiteSpace=wrap;fontSize=13.3;fontColor=#333333;fontStyle=1;strokeColor=#3a414a;strokeOpacity=100;strokeWidth=0.8;rounded=1;arcSize=12;edgeStyle=orthogonalEdgeStyle;startArrow=none;endArrow=block;endFill=1;exitX=0.5;exitY=0.992;exitPerimeter=0;entryX=0.5;entryY=-0.008;entryPerimeter=0;lucidId=-w2Etj6ydES2;shadow=1;fillColor=#FFFFFF;" parent="1" source="2zXYT1LvfEtl15NbrZRE-199" target="2zXYT1LvfEtl15NbrZRE-210" edge="1">
          <mxGeometry width="100" height="100" relative="1" as="geometry">
            <Array as="points" />
          </mxGeometry>
        </mxCell>
        <mxCell id="2zXYT1LvfEtl15NbrZRE-203" value="No" style="text;html=1;resizable=0;labelBackgroundColor=default;align=center;verticalAlign=middle;fontStyle=1;fontColor=#333333;fontSize=13.3;shadow=1;fillColor=#FFFFFF;" parent="2zXYT1LvfEtl15NbrZRE-202" vertex="1">
          <mxGeometry relative="1" as="geometry" />
        </mxCell>
        <mxCell id="2zXYT1LvfEtl15NbrZRE-204" value="Is it the last line?" style="html=1;overflow=block;blockSpacing=1;whiteSpace=wrap;rhombus;fontSize=16.7;spacing=9;strokeColor=#0F0F0F;rounded=1;absoluteArcSize=1;arcSize=9;fillColor=#FFE599;strokeWidth=NaN;lucidId=1x2EwepF0oXS;shadow=1;align=center;verticalAlign=middle;fontFamily=Helvetica;fontColor=default;" parent="1" vertex="1">
          <mxGeometry x="-8585" y="-4145" width="120" height="90" as="geometry" />
        </mxCell>
        <mxCell id="2zXYT1LvfEtl15NbrZRE-205" value="" style="html=1;jettySize=18;whiteSpace=wrap;fontSize=13.3;fontColor=#333333;fontStyle=1;strokeColor=#3a414a;strokeOpacity=100;strokeWidth=0.8;rounded=1;arcSize=12;edgeStyle=orthogonalEdgeStyle;startArrow=none;endArrow=block;endFill=1;exitX=0.5;exitY=0.008;exitPerimeter=0;entryX=-0.005;entryY=0.5;entryPerimeter=0;lucidId=Tz2Eq6F8V47a;shadow=1;fillColor=#FFFFFF;" parent="1" source="2zXYT1LvfEtl15NbrZRE-204" target="2zXYT1LvfEtl15NbrZRE-195" edge="1">
          <mxGeometry width="100" height="100" relative="1" as="geometry">
            <Array as="points" />
          </mxGeometry>
        </mxCell>
        <mxCell id="2zXYT1LvfEtl15NbrZRE-206" value="No" style="text;html=1;resizable=0;labelBackgroundColor=default;align=center;verticalAlign=middle;fontStyle=1;fontColor=#333333;fontSize=13.3;shadow=1;fillColor=#FFFFFF;" parent="2zXYT1LvfEtl15NbrZRE-205" vertex="1">
          <mxGeometry relative="1" as="geometry" />
        </mxCell>
        <mxCell id="2zXYT1LvfEtl15NbrZRE-207" value="" style="html=1;jettySize=18;whiteSpace=wrap;fontSize=13.3;fontColor=#333333;fontStyle=1;strokeColor=#3a414a;strokeOpacity=100;strokeWidth=0.8;rounded=1;arcSize=12;edgeStyle=orthogonalEdgeStyle;startArrow=none;endArrow=block;endFill=1;exitX=0.012;exitY=0.5;exitPerimeter=0;entryX=1;entryY=0.5;entryPerimeter=0;lucidId=mA2EK.HZu-cW;shadow=1;fillColor=#FFFFFF;entryDx=0;entryDy=0;" parent="1" source="2zXYT1LvfEtl15NbrZRE-204" target="2zXYT1LvfEtl15NbrZRE-360" edge="1">
          <mxGeometry width="100" height="100" relative="1" as="geometry">
            <Array as="points" />
            <mxPoint x="-8659.28" y="-4100" as="targetPoint" />
          </mxGeometry>
        </mxCell>
        <mxCell id="2zXYT1LvfEtl15NbrZRE-208" value="Yes" style="text;html=1;resizable=0;labelBackgroundColor=default;align=center;verticalAlign=middle;fontStyle=1;fontColor=#333333;fontSize=13.3;shadow=1;fillColor=#FFFFFF;" parent="2zXYT1LvfEtl15NbrZRE-207" vertex="1">
          <mxGeometry relative="1" as="geometry" />
        </mxCell>
        <mxCell id="2zXYT1LvfEtl15NbrZRE-210" value="Split line" style="html=1;overflow=block;blockSpacing=1;whiteSpace=wrap;fontSize=16.7;spacing=9;strokeColor=#0F0F0F;rounded=1;absoluteArcSize=1;arcSize=9;fillColor=default;strokeWidth=NaN;lucidId=.G2Ez1gFWwaT;shadow=1;align=center;verticalAlign=middle;fontFamily=Helvetica;fontColor=default;" parent="1" vertex="1">
          <mxGeometry x="-8405" y="-3905" width="120" height="90" as="geometry" />
        </mxCell>
        <mxCell id="2zXYT1LvfEtl15NbrZRE-212" value="Is the first argument a color?" style="html=1;overflow=block;blockSpacing=1;whiteSpace=wrap;rhombus;fontSize=16.7;spacing=9;strokeColor=#0F0F0F;rounded=1;absoluteArcSize=1;arcSize=9;fillColor=#FFE599;strokeWidth=NaN;lucidId=qH2Eay7~v-BC;shadow=1;align=center;verticalAlign=middle;fontFamily=Helvetica;fontColor=default;" parent="1" vertex="1">
          <mxGeometry x="-8420" y="-3635" width="140" height="110" as="geometry" />
        </mxCell>
        <mxCell id="2zXYT1LvfEtl15NbrZRE-213" value="" style="html=1;jettySize=18;whiteSpace=wrap;fontSize=13.3;fontColor=#333333;fontStyle=1;strokeColor=#3a414a;strokeOpacity=100;strokeWidth=0.8;rounded=1;arcSize=12;edgeStyle=orthogonalEdgeStyle;startArrow=none;endArrow=block;endFill=1;exitX=0.5;exitY=0.993;exitPerimeter=0;entryX=0.5;entryY=0.006;entryPerimeter=0;lucidId=wM2EkLcVrEAG;shadow=1;fillColor=#FFFFFF;" parent="1" source="2zXYT1LvfEtl15NbrZRE-212" target="2zXYT1LvfEtl15NbrZRE-215" edge="1">
          <mxGeometry width="100" height="100" relative="1" as="geometry">
            <Array as="points" />
          </mxGeometry>
        </mxCell>
        <mxCell id="2zXYT1LvfEtl15NbrZRE-214" value="No" style="text;html=1;resizable=0;labelBackgroundColor=default;align=center;verticalAlign=middle;fontStyle=1;fontColor=#333333;fontSize=13.3;shadow=1;fillColor=#FFFFFF;" parent="2zXYT1LvfEtl15NbrZRE-213" vertex="1">
          <mxGeometry relative="1" as="geometry" />
        </mxCell>
        <mxCell id="2zXYT1LvfEtl15NbrZRE-215" value="Is the first argument a texture?" style="html=1;overflow=block;blockSpacing=1;whiteSpace=wrap;rhombus;fontSize=16.7;spacing=9;strokeColor=#0F0F0F;rounded=1;absoluteArcSize=1;arcSize=9;fillColor=#FFE599;strokeWidth=NaN;lucidId=DM2E07bIn749;shadow=1;align=center;verticalAlign=middle;fontFamily=Helvetica;fontColor=default;" parent="1" vertex="1">
          <mxGeometry x="-8420" y="-3435" width="140" height="90" as="geometry" />
        </mxCell>
        <mxCell id="2zXYT1LvfEtl15NbrZRE-218" value="Parse  Colors" style="html=1;overflow=block;blockSpacing=1;whiteSpace=wrap;ellipse;fontSize=16.7;spacing=9;strokeColor=#0F0F0F;rounded=1;absoluteArcSize=1;arcSize=9;fillColor=default;strokeWidth=NaN;lucidId=1N2E4Ob8JHIw;shadow=1;align=center;verticalAlign=middle;fontFamily=Helvetica;fontColor=default;" parent="1" vertex="1">
          <mxGeometry x="-8180" y="-3625" width="90" height="90" as="geometry" />
        </mxCell>
        <mxCell id="2zXYT1LvfEtl15NbrZRE-222" value="" style="html=1;jettySize=18;whiteSpace=wrap;fontSize=13.3;fontColor=#333333;fontStyle=1;strokeColor=#3a414a;strokeOpacity=100;strokeWidth=0.8;rounded=1;arcSize=12;edgeStyle=orthogonalEdgeStyle;startArrow=none;endArrow=block;endFill=1;exitX=0.5;exitY=0.994;exitPerimeter=0;entryX=0.5;entryY=-0.012;entryPerimeter=0;lucidId=EQ2EGbUrHCf6;shadow=1;fillColor=#FFFFFF;" parent="1" source="2zXYT1LvfEtl15NbrZRE-215" edge="1">
          <mxGeometry width="100" height="100" relative="1" as="geometry">
            <Array as="points" />
            <mxPoint x="-8349" y="-3245.72" as="targetPoint" />
          </mxGeometry>
        </mxCell>
        <mxCell id="2zXYT1LvfEtl15NbrZRE-223" value="No" style="text;html=1;resizable=0;labelBackgroundColor=default;align=center;verticalAlign=middle;fontStyle=1;fontColor=#333333;fontSize=13.3;shadow=1;fillColor=#FFFFFF;" parent="2zXYT1LvfEtl15NbrZRE-222" vertex="1">
          <mxGeometry relative="1" as="geometry" />
        </mxCell>
        <mxCell id="2zXYT1LvfEtl15NbrZRE-225" value="key and color string" style="html=1;overflow=block;blockSpacing=1;whiteSpace=wrap;shape=parallelogram;perimeter=parallelogramPerimeter;anchorPointDirection=0;fontSize=16.7;spacing=9;strokeColor=#0F0F0F;rounded=1;absoluteArcSize=1;arcSize=9;fillColor=default;strokeWidth=NaN;lucidId=cS2EyIEVAVCU;shadow=1;align=center;verticalAlign=middle;fontFamily=Helvetica;fontColor=default;" parent="1" vertex="1">
          <mxGeometry x="-8430" y="-3005" width="140" height="90" as="geometry" />
        </mxCell>
        <mxCell id="2zXYT1LvfEtl15NbrZRE-226" value="" style="html=1;jettySize=18;whiteSpace=wrap;fontSize=13;strokeColor=#3a414a;strokeOpacity=100;strokeWidth=0.8;rounded=1;arcSize=12;edgeStyle=orthogonalEdgeStyle;startArrow=none;endArrow=block;endFill=1;exitX=0.5;exitY=1.008;exitPerimeter=0;entryX=0.5;entryY=-0.008;entryPerimeter=0;lucidId=US2E4OVk6I-l;shadow=1;fillColor=#FFFFFF;" parent="1" source="2zXYT1LvfEtl15NbrZRE-193" target="2zXYT1LvfEtl15NbrZRE-225" edge="1">
          <mxGeometry width="100" height="100" relative="1" as="geometry">
            <Array as="points" />
          </mxGeometry>
        </mxCell>
        <mxCell id="2zXYT1LvfEtl15NbrZRE-227" value="Is the key F" style="html=1;overflow=block;blockSpacing=1;whiteSpace=wrap;rhombus;fontSize=16.7;spacing=9;strokeColor=#0F0F0F;rounded=1;absoluteArcSize=1;arcSize=9;fillColor=#FFE599;strokeWidth=NaN;lucidId=6S2EEeG~vxge;shadow=1;align=center;verticalAlign=middle;fontFamily=Helvetica;fontColor=default;" parent="1" vertex="1">
          <mxGeometry x="-8420" y="-2855" width="120" height="90" as="geometry" />
        </mxCell>
        <mxCell id="2zXYT1LvfEtl15NbrZRE-311" value="" style="endArrow=classic;html=1;rounded=0;entryX=0;entryY=0.5;entryDx=0;entryDy=0;exitX=0.971;exitY=0.498;exitDx=0;exitDy=0;exitPerimeter=0;" parent="1" edge="1">
          <mxGeometry width="50" height="50" relative="1" as="geometry">
            <mxPoint x="-8285" y="-3390.5" as="sourcePoint" />
            <mxPoint x="-8174" y="-3390" as="targetPoint" />
          </mxGeometry>
        </mxCell>
        <mxCell id="2zXYT1LvfEtl15NbrZRE-312" value="&lt;b&gt;Yes&lt;/b&gt;" style="edgeLabel;html=1;align=center;verticalAlign=middle;resizable=0;points=[];" parent="2zXYT1LvfEtl15NbrZRE-311" vertex="1" connectable="0">
          <mxGeometry relative="1" as="geometry">
            <mxPoint as="offset" />
          </mxGeometry>
        </mxCell>
        <mxCell id="2zXYT1LvfEtl15NbrZRE-313" value="Parse Texture" style="html=1;overflow=block;blockSpacing=1;whiteSpace=wrap;ellipse;fontSize=16.7;spacing=9;strokeColor=#0F0F0F;rounded=1;absoluteArcSize=1;arcSize=9;fillColor=default;strokeWidth=NaN;lucidId=1N2E4Ob8JHIw;shadow=1;align=center;verticalAlign=middle;fontFamily=Helvetica;fontColor=default;" parent="1" vertex="1">
          <mxGeometry x="-8180" y="-3435" width="90" height="90" as="geometry" />
        </mxCell>
        <mxCell id="2zXYT1LvfEtl15NbrZRE-314" value="" style="endArrow=classic;html=1;rounded=0;exitX=1;exitY=0.5;exitDx=0;exitDy=0;entryX=0;entryY=0.5;entryDx=0;entryDy=0;" parent="1" source="2zXYT1LvfEtl15NbrZRE-227" target="2zXYT1LvfEtl15NbrZRE-315" edge="1">
          <mxGeometry width="50" height="50" relative="1" as="geometry">
            <mxPoint x="-8305" y="-2735" as="sourcePoint" />
            <mxPoint x="-8225" y="-2815" as="targetPoint" />
          </mxGeometry>
        </mxCell>
        <mxCell id="2zXYT1LvfEtl15NbrZRE-318" value="&lt;b style=&quot;font-size: 11px;&quot;&gt;&lt;font style=&quot;font-size: 11px;&quot;&gt;Yes&lt;/font&gt;&lt;/b&gt;" style="edgeLabel;html=1;align=center;verticalAlign=middle;resizable=0;points=[];fontSize=11;" parent="2zXYT1LvfEtl15NbrZRE-314" vertex="1" connectable="0">
          <mxGeometry x="-0.1031" y="-1" relative="1" as="geometry">
            <mxPoint as="offset" />
          </mxGeometry>
        </mxCell>
        <mxCell id="2zXYT1LvfEtl15NbrZRE-333" value="" style="edgeStyle=orthogonalEdgeStyle;rounded=0;orthogonalLoop=1;jettySize=auto;html=1;exitX=0.5;exitY=1;exitDx=0;exitDy=0;" parent="1" source="2zXYT1LvfEtl15NbrZRE-315" edge="1">
          <mxGeometry relative="1" as="geometry">
            <mxPoint x="-8145" y="-2695" as="targetPoint" />
          </mxGeometry>
        </mxCell>
        <mxCell id="2zXYT1LvfEtl15NbrZRE-334" value="&lt;b&gt;Yes&lt;/b&gt;" style="edgeLabel;html=1;align=center;verticalAlign=middle;resizable=0;points=[];" parent="2zXYT1LvfEtl15NbrZRE-333" vertex="1" connectable="0">
          <mxGeometry x="-0.2509" relative="1" as="geometry">
            <mxPoint as="offset" />
          </mxGeometry>
        </mxCell>
        <mxCell id="2zXYT1LvfEtl15NbrZRE-315" value="&lt;font style=&quot;font-size: 11px;&quot;&gt;Is the Floor Color already&amp;nbsp;&lt;/font&gt;&lt;span style=&quot;font-size: 11px;&quot;&gt;assigned?&lt;/span&gt;" style="html=1;overflow=block;blockSpacing=1;whiteSpace=wrap;rhombus;fontSize=16.7;spacing=9;strokeColor=#0F0F0F;rounded=1;absoluteArcSize=1;arcSize=9;fillColor=#FFE599;strokeWidth=NaN;lucidId=6S2EEeG~vxge;shadow=1;align=center;verticalAlign=middle;fontFamily=Helvetica;fontColor=default;" parent="1" vertex="1">
          <mxGeometry x="-8215" y="-2870" width="140" height="120" as="geometry" />
        </mxCell>
        <mxCell id="2zXYT1LvfEtl15NbrZRE-317" value="" style="endArrow=classic;html=1;rounded=0;exitX=0.5;exitY=1;exitDx=0;exitDy=0;entryX=0.5;entryY=0;entryDx=0;entryDy=0;" parent="1" source="2zXYT1LvfEtl15NbrZRE-225" target="2zXYT1LvfEtl15NbrZRE-227" edge="1">
          <mxGeometry width="50" height="50" relative="1" as="geometry">
            <mxPoint x="-8375" y="-2775" as="sourcePoint" />
            <mxPoint x="-8325" y="-2825" as="targetPoint" />
          </mxGeometry>
        </mxCell>
        <mxCell id="2zXYT1LvfEtl15NbrZRE-319" value="&lt;b&gt;No&lt;/b&gt;" style="endArrow=classic;html=1;rounded=0;exitX=0.5;exitY=1;exitDx=0;exitDy=0;entryX=0.5;entryY=0;entryDx=0;entryDy=0;" parent="1" source="2zXYT1LvfEtl15NbrZRE-227" edge="1">
          <mxGeometry width="50" height="50" relative="1" as="geometry">
            <mxPoint x="-8445" y="-2845" as="sourcePoint" />
            <mxPoint x="-8360" y="-2592.5" as="targetPoint" />
          </mxGeometry>
        </mxCell>
        <mxCell id="2zXYT1LvfEtl15NbrZRE-323" value="&lt;font style=&quot;font-size: 11px;&quot;&gt;Is the Ceiling Color already&amp;nbsp;&lt;/font&gt;&lt;span style=&quot;font-size: 11px;&quot;&gt;assigned?&lt;/span&gt;" style="html=1;overflow=block;blockSpacing=1;whiteSpace=wrap;rhombus;fontSize=16.7;spacing=9;strokeColor=#0F0F0F;rounded=1;absoluteArcSize=1;arcSize=9;fillColor=#FFE599;strokeWidth=NaN;lucidId=6S2EEeG~vxge;shadow=1;align=center;verticalAlign=middle;fontFamily=Helvetica;fontColor=default;" parent="1" vertex="1">
          <mxGeometry x="-8215" y="-2607.5" width="140" height="120" as="geometry" />
        </mxCell>
        <mxCell id="2zXYT1LvfEtl15NbrZRE-341" value="Assign Color" style="rounded=1;whiteSpace=wrap;html=1;" parent="1" vertex="1">
          <mxGeometry x="-7985" y="-2577.5" width="120" height="60" as="geometry" />
        </mxCell>
        <mxCell id="2zXYT1LvfEtl15NbrZRE-347" value="Assign Color" style="rounded=1;whiteSpace=wrap;html=1;" parent="1" vertex="1">
          <mxGeometry x="-7985" y="-2840" width="120" height="60" as="geometry" />
        </mxCell>
        <mxCell id="2zXYT1LvfEtl15NbrZRE-348" value="" style="endArrow=classic;html=1;rounded=0;exitX=1;exitY=0.5;exitDx=0;exitDy=0;entryX=0;entryY=0.5;entryDx=0;entryDy=0;" parent="1" source="2zXYT1LvfEtl15NbrZRE-315" target="2zXYT1LvfEtl15NbrZRE-347" edge="1">
          <mxGeometry width="50" height="50" relative="1" as="geometry">
            <mxPoint x="-8115" y="-2575" as="sourcePoint" />
            <mxPoint x="-8065" y="-2625" as="targetPoint" />
          </mxGeometry>
        </mxCell>
        <mxCell id="2zXYT1LvfEtl15NbrZRE-349" value="&lt;b&gt;No&lt;/b&gt;" style="edgeLabel;html=1;align=center;verticalAlign=middle;resizable=0;points=[];" parent="2zXYT1LvfEtl15NbrZRE-348" vertex="1" connectable="0">
          <mxGeometry x="-0.1035" y="-1" relative="1" as="geometry">
            <mxPoint as="offset" />
          </mxGeometry>
        </mxCell>
        <mxCell id="2zXYT1LvfEtl15NbrZRE-355" value="&lt;meta charset=&quot;utf-8&quot;&gt;&lt;span style=&quot;color: rgb(0, 0, 0); font-family: Helvetica; font-size: 17px; font-style: normal; font-variant-ligatures: normal; font-variant-caps: normal; font-weight: 400; letter-spacing: normal; orphans: 2; text-align: center; text-indent: 0px; text-transform: none; widows: 2; word-spacing: 0px; -webkit-text-stroke-width: 0px; white-space: normal; background-color: rgb(251, 251, 251); text-decoration-thickness: initial; text-decoration-style: initial; text-decoration-color: initial; display: inline !important; float: none;&quot;&gt;return true&lt;/span&gt;" style="strokeWidth=NaN;html=1;shape=mxgraph.flowchart.terminator;whiteSpace=wrap;rounded=1;shadow=1;strokeColor=#0F0F0F;align=center;verticalAlign=middle;spacing=9;arcSize=9;fontFamily=Helvetica;fontSize=16.7;fontColor=default;fillColor=default;" parent="1" vertex="1">
          <mxGeometry x="-9130" y="-3065" width="100" height="60" as="geometry" />
        </mxCell>
        <mxCell id="2zXYT1LvfEtl15NbrZRE-356" value="&lt;span style=&quot;color: rgb(0, 0, 0); font-family: Helvetica; font-size: 17px; font-style: normal; font-variant-ligatures: normal; font-variant-caps: normal; font-weight: 400; letter-spacing: normal; orphans: 2; text-align: center; text-indent: 0px; text-transform: none; widows: 2; word-spacing: 0px; -webkit-text-stroke-width: 0px; white-space: normal; background-color: rgb(251, 251, 251); text-decoration-thickness: initial; text-decoration-style: initial; text-decoration-color: initial; display: inline !important; float: none;&quot;&gt;return false&lt;/span&gt;" style="strokeWidth=NaN;html=1;shape=mxgraph.flowchart.terminator;whiteSpace=wrap;rounded=1;shadow=1;strokeColor=#0F0F0F;align=center;verticalAlign=middle;spacing=9;arcSize=9;fontFamily=Helvetica;fontSize=16.7;fontColor=default;fillColor=default;" parent="1" vertex="1">
          <mxGeometry x="-9540" y="-3375" width="100" height="60" as="geometry" />
        </mxCell>
        <mxCell id="2zXYT1LvfEtl15NbrZRE-358" value="&lt;span style=&quot;color: rgb(0, 0, 0); font-family: Helvetica; font-size: 17px; font-style: normal; font-variant-ligatures: normal; font-variant-caps: normal; font-weight: 400; letter-spacing: normal; orphans: 2; text-align: center; text-indent: 0px; text-transform: none; widows: 2; word-spacing: 0px; -webkit-text-stroke-width: 0px; white-space: normal; background-color: rgb(251, 251, 251); text-decoration-thickness: initial; text-decoration-style: initial; text-decoration-color: initial; display: inline !important; float: none;&quot;&gt;return false&lt;/span&gt;" style="strokeWidth=NaN;html=1;shape=mxgraph.flowchart.terminator;whiteSpace=wrap;rounded=1;shadow=1;strokeColor=#0F0F0F;align=center;verticalAlign=middle;spacing=9;arcSize=9;fontFamily=Helvetica;fontSize=16.7;fontColor=default;fillColor=default;" parent="1" vertex="1">
          <mxGeometry x="-9540" y="-3705" width="100" height="60" as="geometry" />
        </mxCell>
        <mxCell id="2zXYT1LvfEtl15NbrZRE-359" value="&lt;span style=&quot;color: rgb(0, 0, 0); font-family: Helvetica; font-size: 17px; font-style: normal; font-variant-ligatures: normal; font-variant-caps: normal; font-weight: 400; letter-spacing: normal; orphans: 2; text-align: center; text-indent: 0px; text-transform: none; widows: 2; word-spacing: 0px; -webkit-text-stroke-width: 0px; white-space: normal; background-color: rgb(251, 251, 251); text-decoration-thickness: initial; text-decoration-style: initial; text-decoration-color: initial; display: inline !important; float: none;&quot;&gt;return false&lt;/span&gt;" style="strokeWidth=NaN;html=1;shape=mxgraph.flowchart.terminator;whiteSpace=wrap;rounded=1;shadow=1;strokeColor=#0F0F0F;align=center;verticalAlign=middle;spacing=9;arcSize=9;fontFamily=Helvetica;fontSize=16.7;fontColor=default;fillColor=default;" parent="1" vertex="1">
          <mxGeometry x="-9540" y="-4055" width="100" height="60" as="geometry" />
        </mxCell>
        <mxCell id="2zXYT1LvfEtl15NbrZRE-360" value="&lt;span style=&quot;color: rgb(0, 0, 0); font-family: Helvetica; font-size: 17px; font-style: normal; font-variant-ligatures: normal; font-variant-caps: normal; font-weight: 400; letter-spacing: normal; orphans: 2; text-align: center; text-indent: 0px; text-transform: none; widows: 2; word-spacing: 0px; -webkit-text-stroke-width: 0px; white-space: normal; background-color: rgb(251, 251, 251); text-decoration-thickness: initial; text-decoration-style: initial; text-decoration-color: initial; display: inline !important; float: none;&quot;&gt;return false&lt;/span&gt;" style="strokeWidth=NaN;html=1;shape=mxgraph.flowchart.terminator;whiteSpace=wrap;rounded=1;shadow=1;strokeColor=#0F0F0F;align=center;verticalAlign=middle;spacing=9;arcSize=9;fontFamily=Helvetica;fontSize=16.7;fontColor=default;fillColor=default;" parent="1" vertex="1">
          <mxGeometry x="-8750" y="-4130" width="100" height="60" as="geometry" />
        </mxCell>
        <mxCell id="2zXYT1LvfEtl15NbrZRE-361" value="&lt;span style=&quot;color: rgb(0, 0, 0); font-family: Helvetica; font-size: 17px; font-style: normal; font-variant-ligatures: normal; font-variant-caps: normal; font-weight: 400; letter-spacing: normal; orphans: 2; text-align: center; text-indent: 0px; text-transform: none; widows: 2; word-spacing: 0px; -webkit-text-stroke-width: 0px; white-space: normal; background-color: rgb(251, 251, 251); text-decoration-thickness: initial; text-decoration-style: initial; text-decoration-color: initial; display: inline !important; float: none;&quot;&gt;return false&lt;/span&gt;" style="strokeWidth=NaN;html=1;shape=mxgraph.flowchart.terminator;whiteSpace=wrap;rounded=1;shadow=1;strokeColor=#0F0F0F;align=center;verticalAlign=middle;spacing=9;arcSize=9;fontFamily=Helvetica;fontSize=16.7;fontColor=default;fillColor=default;" parent="1" vertex="1">
          <mxGeometry x="-8395" y="-3245" width="100" height="60" as="geometry" />
        </mxCell>
        <mxCell id="2zXYT1LvfEtl15NbrZRE-362" value="&lt;span style=&quot;color: rgb(0, 0, 0); font-family: Helvetica; font-size: 17px; font-style: normal; font-variant-ligatures: normal; font-variant-caps: normal; font-weight: 400; letter-spacing: normal; orphans: 2; text-align: center; text-indent: 0px; text-transform: none; widows: 2; word-spacing: 0px; -webkit-text-stroke-width: 0px; white-space: normal; background-color: rgb(251, 251, 251); text-decoration-thickness: initial; text-decoration-style: initial; text-decoration-color: initial; display: inline !important; float: none;&quot;&gt;return false&lt;/span&gt;" style="strokeWidth=NaN;html=1;shape=mxgraph.flowchart.terminator;whiteSpace=wrap;rounded=1;shadow=1;strokeColor=#0F0F0F;align=center;verticalAlign=middle;spacing=9;arcSize=9;fontFamily=Helvetica;fontSize=16.7;fontColor=default;fillColor=default;" parent="1" vertex="1">
          <mxGeometry x="-8195" y="-2695" width="100" height="60" as="geometry" />
        </mxCell>
        <mxCell id="2zXYT1LvfEtl15NbrZRE-363" value="Is the key F" style="html=1;overflow=block;blockSpacing=1;whiteSpace=wrap;rhombus;fontSize=16.7;spacing=9;strokeColor=#0F0F0F;rounded=1;absoluteArcSize=1;arcSize=9;fillColor=#FFE599;strokeWidth=NaN;lucidId=6S2EEeG~vxge;shadow=1;align=center;verticalAlign=middle;fontFamily=Helvetica;fontColor=default;" parent="1" vertex="1">
          <mxGeometry x="-8420" y="-2592.5" width="120" height="90" as="geometry" />
        </mxCell>
        <mxCell id="2zXYT1LvfEtl15NbrZRE-366" value="" style="edgeStyle=orthogonalEdgeStyle;rounded=0;orthogonalLoop=1;jettySize=auto;html=1;exitX=0.5;exitY=1;exitDx=0;exitDy=0;" parent="1" edge="1">
          <mxGeometry relative="1" as="geometry">
            <mxPoint x="-8145" y="-2487.5" as="sourcePoint" />
            <mxPoint x="-8145" y="-2432.5" as="targetPoint" />
          </mxGeometry>
        </mxCell>
        <mxCell id="2zXYT1LvfEtl15NbrZRE-367" value="&lt;b&gt;Yes&lt;/b&gt;" style="edgeLabel;html=1;align=center;verticalAlign=middle;resizable=0;points=[];" parent="2zXYT1LvfEtl15NbrZRE-366" vertex="1" connectable="0">
          <mxGeometry x="-0.2509" relative="1" as="geometry">
            <mxPoint as="offset" />
          </mxGeometry>
        </mxCell>
        <mxCell id="2zXYT1LvfEtl15NbrZRE-368" value="&lt;span style=&quot;color: rgb(0, 0, 0); font-family: Helvetica; font-size: 17px; font-style: normal; font-variant-ligatures: normal; font-variant-caps: normal; font-weight: 400; letter-spacing: normal; orphans: 2; text-align: center; text-indent: 0px; text-transform: none; widows: 2; word-spacing: 0px; -webkit-text-stroke-width: 0px; white-space: normal; background-color: rgb(251, 251, 251); text-decoration-thickness: initial; text-decoration-style: initial; text-decoration-color: initial; display: inline !important; float: none;&quot;&gt;return false&lt;/span&gt;" style="strokeWidth=NaN;html=1;shape=mxgraph.flowchart.terminator;whiteSpace=wrap;rounded=1;shadow=1;strokeColor=#0F0F0F;align=center;verticalAlign=middle;spacing=9;arcSize=9;fontFamily=Helvetica;fontSize=16.7;fontColor=default;fillColor=default;" parent="1" vertex="1">
          <mxGeometry x="-8195" y="-2432.5" width="100" height="60" as="geometry" />
        </mxCell>
        <mxCell id="2zXYT1LvfEtl15NbrZRE-369" value="" style="endArrow=classic;html=1;rounded=0;exitX=1;exitY=0.5;exitDx=0;exitDy=0;entryX=0;entryY=0.5;entryDx=0;entryDy=0;" parent="1" edge="1">
          <mxGeometry width="50" height="50" relative="1" as="geometry">
            <mxPoint x="-8300" y="-2547.81" as="sourcePoint" />
            <mxPoint x="-8215" y="-2547.81" as="targetPoint" />
          </mxGeometry>
        </mxCell>
        <mxCell id="2zXYT1LvfEtl15NbrZRE-370" value="&lt;b style=&quot;font-size: 11px;&quot;&gt;&lt;font style=&quot;font-size: 11px;&quot;&gt;Yes&lt;/font&gt;&lt;/b&gt;" style="edgeLabel;html=1;align=center;verticalAlign=middle;resizable=0;points=[];fontSize=11;" parent="2zXYT1LvfEtl15NbrZRE-369" vertex="1" connectable="0">
          <mxGeometry x="-0.1031" y="-1" relative="1" as="geometry">
            <mxPoint as="offset" />
          </mxGeometry>
        </mxCell>
        <mxCell id="2zXYT1LvfEtl15NbrZRE-371" value="" style="endArrow=classic;html=1;rounded=0;exitX=1;exitY=0.5;exitDx=0;exitDy=0;entryX=0;entryY=0.5;entryDx=0;entryDy=0;" parent="1" edge="1">
          <mxGeometry width="50" height="50" relative="1" as="geometry">
            <mxPoint x="-8075" y="-2547.81" as="sourcePoint" />
            <mxPoint x="-7985" y="-2547.81" as="targetPoint" />
          </mxGeometry>
        </mxCell>
        <mxCell id="2zXYT1LvfEtl15NbrZRE-372" value="&lt;b&gt;No&lt;/b&gt;" style="edgeLabel;html=1;align=center;verticalAlign=middle;resizable=0;points=[];" parent="2zXYT1LvfEtl15NbrZRE-371" vertex="1" connectable="0">
          <mxGeometry x="-0.1035" y="-1" relative="1" as="geometry">
            <mxPoint as="offset" />
          </mxGeometry>
        </mxCell>
        <mxCell id="2zXYT1LvfEtl15NbrZRE-375" value="&lt;div style=&quot;&quot;&gt;&lt;span style=&quot;background-color: initial;&quot;&gt;key and file&lt;/span&gt;&lt;/div&gt;&lt;div style=&quot;&quot;&gt;&lt;span style=&quot;background-color: initial;&quot;&gt;path&lt;/span&gt;&lt;/div&gt;" style="html=1;overflow=block;blockSpacing=1;whiteSpace=wrap;shape=parallelogram;perimeter=parallelogramPerimeter;anchorPointDirection=0;fontSize=16.7;spacing=9;strokeColor=#0F0F0F;rounded=1;absoluteArcSize=1;arcSize=9;fillColor=default;strokeWidth=NaN;lucidId=cS2EyIEVAVCU;shadow=1;align=center;verticalAlign=middle;fontFamily=Helvetica;fontColor=default;" parent="1" vertex="1">
          <mxGeometry x="-7340" y="-3325" width="140" height="90" as="geometry" />
        </mxCell>
        <mxCell id="2zXYT1LvfEtl15NbrZRE-376" value="" style="html=1;jettySize=18;whiteSpace=wrap;fontSize=13;strokeColor=#3a414a;strokeOpacity=100;strokeWidth=0.8;rounded=1;arcSize=12;edgeStyle=orthogonalEdgeStyle;startArrow=none;endArrow=block;endFill=1;exitX=0.5;exitY=1.008;exitPerimeter=0;entryX=0.5;entryY=-0.008;entryPerimeter=0;lucidId=US2E4OVk6I-l;shadow=1;fillColor=#FFFFFF;" parent="1" target="2zXYT1LvfEtl15NbrZRE-375" edge="1">
          <mxGeometry width="100" height="100" relative="1" as="geometry">
            <Array as="points" />
            <mxPoint x="-7270" y="-3384" as="sourcePoint" />
          </mxGeometry>
        </mxCell>
        <mxCell id="2zXYT1LvfEtl15NbrZRE-377" value="" style="endArrow=classic;html=1;rounded=0;exitX=0.5;exitY=1;exitDx=0;exitDy=0;entryX=0.5;entryY=0;entryDx=0;entryDy=0;" parent="1" source="2zXYT1LvfEtl15NbrZRE-375" edge="1">
          <mxGeometry width="50" height="50" relative="1" as="geometry">
            <mxPoint x="-7285" y="-3095" as="sourcePoint" />
            <mxPoint x="-7270" y="-3175" as="targetPoint" />
          </mxGeometry>
        </mxCell>
        <mxCell id="2zXYT1LvfEtl15NbrZRE-379" value="&lt;font style=&quot;font-size: 13px;&quot;&gt;the array has 2 elements?&lt;/font&gt;" style="html=1;overflow=block;blockSpacing=1;whiteSpace=wrap;rhombus;fontSize=16.7;spacing=9;strokeColor=#0F0F0F;rounded=1;absoluteArcSize=1;arcSize=9;fillColor=#FFE599;strokeWidth=NaN;lucidId=qH2Eay7~v-BC;shadow=1;align=center;verticalAlign=middle;fontFamily=Helvetica;fontColor=default;" parent="1" vertex="1">
          <mxGeometry x="-8435" y="-3775" width="170" height="100" as="geometry" />
        </mxCell>
        <mxCell id="2zXYT1LvfEtl15NbrZRE-382" value="" style="edgeStyle=none;orthogonalLoop=1;jettySize=auto;html=1;rounded=0;exitX=0.459;exitY=1.02;exitDx=0;exitDy=0;exitPerimeter=0;entryX=0.5;entryY=0;entryDx=0;entryDy=0;" parent="1" source="2zXYT1LvfEtl15NbrZRE-210" target="2zXYT1LvfEtl15NbrZRE-379" edge="1">
          <mxGeometry width="100" relative="1" as="geometry">
            <mxPoint x="-8395" y="-3785" as="sourcePoint" />
            <mxPoint x="-8295" y="-3785" as="targetPoint" />
            <Array as="points" />
          </mxGeometry>
        </mxCell>
        <mxCell id="2zXYT1LvfEtl15NbrZRE-384" value="" style="edgeStyle=none;orthogonalLoop=1;jettySize=auto;html=1;rounded=0;exitX=0.5;exitY=1;exitDx=0;exitDy=0;" parent="1" source="2zXYT1LvfEtl15NbrZRE-379" target="2zXYT1LvfEtl15NbrZRE-212" edge="1">
          <mxGeometry width="100" relative="1" as="geometry">
            <mxPoint x="-8348" y="-3675" as="sourcePoint" />
            <mxPoint x="-8338" y="-3765" as="targetPoint" />
            <Array as="points" />
          </mxGeometry>
        </mxCell>
        <mxCell id="2zXYT1LvfEtl15NbrZRE-387" value="&lt;b&gt;Yes&lt;/b&gt;" style="edgeLabel;html=1;align=center;verticalAlign=middle;resizable=0;points=[];" parent="2zXYT1LvfEtl15NbrZRE-384" vertex="1" connectable="0">
          <mxGeometry x="-0.35" relative="1" as="geometry">
            <mxPoint as="offset" />
          </mxGeometry>
        </mxCell>
        <mxCell id="2zXYT1LvfEtl15NbrZRE-388" value="&lt;span style=&quot;color: rgb(0, 0, 0); font-family: Helvetica; font-size: 17px; font-style: normal; font-variant-ligatures: normal; font-variant-caps: normal; font-weight: 400; letter-spacing: normal; orphans: 2; text-align: center; text-indent: 0px; text-transform: none; widows: 2; word-spacing: 0px; -webkit-text-stroke-width: 0px; white-space: normal; background-color: rgb(251, 251, 251); text-decoration-thickness: initial; text-decoration-style: initial; text-decoration-color: initial; display: inline !important; float: none;&quot;&gt;return false&lt;/span&gt;" style="strokeWidth=NaN;html=1;shape=mxgraph.flowchart.terminator;whiteSpace=wrap;rounded=1;shadow=1;strokeColor=#0F0F0F;align=center;verticalAlign=middle;spacing=9;arcSize=9;fontFamily=Helvetica;fontSize=16.7;fontColor=default;fillColor=default;" parent="1" vertex="1">
          <mxGeometry x="-8615" y="-3755" width="100" height="60" as="geometry" />
        </mxCell>
        <mxCell id="2zXYT1LvfEtl15NbrZRE-389" value="&lt;b&gt;No&lt;/b&gt;" style="endArrow=classic;html=1;rounded=0;exitX=0;exitY=0.5;exitDx=0;exitDy=0;entryX=1;entryY=0.5;entryDx=0;entryDy=0;entryPerimeter=0;" parent="1" source="2zXYT1LvfEtl15NbrZRE-379" target="2zXYT1LvfEtl15NbrZRE-388" edge="1">
          <mxGeometry width="50" height="50" relative="1" as="geometry">
            <mxPoint x="-8495" y="-3785" as="sourcePoint" />
            <mxPoint x="-8445" y="-3835" as="targetPoint" />
          </mxGeometry>
        </mxCell>
        <mxCell id="vujtRCiMRTFm4s1cb2ud-1" value="Open file and assign an fd to it" style="html=1;overflow=block;blockSpacing=1;whiteSpace=wrap;fontSize=16.7;spacing=9;strokeColor=#0F0F0F;rounded=1;absoluteArcSize=1;arcSize=9;fillColor=#FFFFFF;strokeWidth=NaN;lucidId=9Y1EQ6iKpvZG;shadow=1;" vertex="1" parent="1">
          <mxGeometry x="-9130" y="-4210" width="120" height="90" as="geometry" />
        </mxCell>
        <mxCell id="vujtRCiMRTFm4s1cb2ud-2" value="Can the file be read?" style="html=1;overflow=block;blockSpacing=1;whiteSpace=wrap;rhombus;fontSize=16.7;spacing=9;strokeColor=#0F0F0F;rounded=1;absoluteArcSize=1;arcSize=9;fillColor=#FFE599;strokeWidth=NaN;lucidId=jZ1E-DMXvh1~;shadow=1;align=center;verticalAlign=middle;fontFamily=Helvetica;fontColor=default;" vertex="1" parent="1">
          <mxGeometry x="-9130" y="-4060" width="120" height="90" as="geometry" />
        </mxCell>
        <mxCell id="vujtRCiMRTFm4s1cb2ud-3" value="" style="html=1;jettySize=18;whiteSpace=wrap;fontSize=13;strokeColor=#3a414a;strokeOpacity=100;strokeWidth=0.8;rounded=1;arcSize=12;edgeStyle=orthogonalEdgeStyle;startArrow=none;endArrow=block;endFill=1;exitX=0.475;exitY=1.008;exitPerimeter=0;entryX=0.475;entryY=0.016;entryPerimeter=0;lucidId=oZ1EE4hA0qJZ;shadow=1;fillColor=#FFFFFF;" edge="1" parent="1" source="vujtRCiMRTFm4s1cb2ud-1" target="vujtRCiMRTFm4s1cb2ud-2">
          <mxGeometry width="100" height="100" relative="1" as="geometry">
            <Array as="points" />
          </mxGeometry>
        </mxCell>
        <mxCell id="vujtRCiMRTFm4s1cb2ud-4" value="" style="html=1;jettySize=18;whiteSpace=wrap;fontSize=13.3;fontColor=#333333;fontStyle=1;strokeColor=#3a414a;strokeOpacity=100;strokeWidth=0.8;rounded=1;arcSize=12;edgeStyle=orthogonalEdgeStyle;startArrow=none;endArrow=block;endFill=1;exitX=0.012;exitY=0.5;exitPerimeter=0;entryX=1.006;entryY=0.5;entryPerimeter=0;lucidId=L41EHP-fWZIB;shadow=1;fillColor=#FFFFFF;" edge="1" parent="1" source="vujtRCiMRTFm4s1cb2ud-2">
          <mxGeometry width="100" height="100" relative="1" as="geometry">
            <Array as="points" />
            <mxPoint x="-9429.28" y="-4015" as="targetPoint" />
          </mxGeometry>
        </mxCell>
        <mxCell id="vujtRCiMRTFm4s1cb2ud-5" value="No" style="text;html=1;resizable=0;labelBackgroundColor=default;align=center;verticalAlign=middle;fontStyle=1;fontColor=#333333;fontSize=13.3;shadow=1;fillColor=#FFFFFF;" vertex="1" parent="vujtRCiMRTFm4s1cb2ud-4">
          <mxGeometry relative="1" as="geometry" />
        </mxCell>
        <mxCell id="vujtRCiMRTFm4s1cb2ud-6" value="" style="html=1;jettySize=18;whiteSpace=wrap;fontSize=13.3;fontColor=#333333;fontStyle=1;strokeColor=#3a414a;strokeOpacity=100;strokeWidth=0.8;rounded=1;arcSize=12;edgeStyle=orthogonalEdgeStyle;startArrow=none;endArrow=block;endFill=1;exitX=0.5;exitY=0.992;exitPerimeter=0;entryX=0.5;entryY=-0.008;entryPerimeter=0;lucidId=T41EOPp2TYkA;shadow=1;fillColor=#FFFFFF;" edge="1" parent="1" source="vujtRCiMRTFm4s1cb2ud-2">
          <mxGeometry width="100" height="100" relative="1" as="geometry">
            <Array as="points" />
            <mxPoint x="-9070" y="-3881" as="targetPoint" />
          </mxGeometry>
        </mxCell>
        <mxCell id="vujtRCiMRTFm4s1cb2ud-7" value="Yes" style="text;html=1;resizable=0;labelBackgroundColor=default;align=center;verticalAlign=middle;fontStyle=1;fontColor=#333333;fontSize=13.3;shadow=1;fillColor=#FFFFFF;" vertex="1" parent="vujtRCiMRTFm4s1cb2ud-6">
          <mxGeometry relative="1" as="geometry" />
        </mxCell>
        <mxCell id="vujtRCiMRTFm4s1cb2ud-8" value="&lt;span style=&quot;color: rgb(0, 0, 0); font-family: Helvetica; font-size: 17px; font-style: normal; font-variant-ligatures: normal; font-variant-caps: normal; font-weight: 400; letter-spacing: normal; orphans: 2; text-align: center; text-indent: 0px; text-transform: none; widows: 2; word-spacing: 0px; -webkit-text-stroke-width: 0px; white-space: normal; background-color: rgb(251, 251, 251); text-decoration-thickness: initial; text-decoration-style: initial; text-decoration-color: initial; display: inline !important; float: none;&quot;&gt;return false&lt;/span&gt;" style="strokeWidth=NaN;html=1;shape=mxgraph.flowchart.terminator;whiteSpace=wrap;rounded=1;shadow=1;strokeColor=#0F0F0F;align=center;verticalAlign=middle;spacing=9;arcSize=9;fontFamily=Helvetica;fontSize=16.7;fontColor=default;fillColor=default;" vertex="1" parent="1">
          <mxGeometry x="-9530" y="-4045" width="100" height="60" as="geometry" />
        </mxCell>
        <mxCell id="vujtRCiMRTFm4s1cb2ud-10" value="Can the file be read?" style="html=1;overflow=block;blockSpacing=1;whiteSpace=wrap;rhombus;fontSize=16.7;spacing=9;strokeColor=#0F0F0F;rounded=1;absoluteArcSize=1;arcSize=9;fillColor=#FFE599;strokeWidth=NaN;lucidId=jZ1E-DMXvh1~;shadow=1;align=center;verticalAlign=middle;fontFamily=Helvetica;fontColor=default;" vertex="1" parent="1">
          <mxGeometry x="-7330" y="-3175" width="120" height="90" as="geometry" />
        </mxCell>
        <mxCell id="vujtRCiMRTFm4s1cb2ud-14" value="" style="html=1;jettySize=18;whiteSpace=wrap;fontSize=13.3;fontColor=#333333;fontStyle=1;strokeColor=#3a414a;strokeOpacity=100;strokeWidth=0.8;rounded=1;arcSize=12;edgeStyle=orthogonalEdgeStyle;startArrow=none;endArrow=block;endFill=1;exitX=0.5;exitY=0.992;exitPerimeter=0;entryX=0.5;entryY=-0.008;entryPerimeter=0;lucidId=T41EOPp2TYkA;shadow=1;fillColor=#FFFFFF;" edge="1" source="vujtRCiMRTFm4s1cb2ud-10" parent="1">
          <mxGeometry width="100" height="100" relative="1" as="geometry">
            <Array as="points" />
            <mxPoint x="-7270" y="-2996" as="targetPoint" />
          </mxGeometry>
        </mxCell>
        <mxCell id="vujtRCiMRTFm4s1cb2ud-15" value="Yes" style="text;html=1;resizable=0;labelBackgroundColor=default;align=center;verticalAlign=middle;fontStyle=1;fontColor=#333333;fontSize=13.3;shadow=1;fillColor=#FFFFFF;" vertex="1" parent="vujtRCiMRTFm4s1cb2ud-14">
          <mxGeometry relative="1" as="geometry" />
        </mxCell>
        <mxCell id="vujtRCiMRTFm4s1cb2ud-16" value="&lt;span style=&quot;color: rgb(0, 0, 0); font-family: Helvetica; font-size: 17px; font-style: normal; font-variant-ligatures: normal; font-variant-caps: normal; font-weight: 400; letter-spacing: normal; orphans: 2; text-align: center; text-indent: 0px; text-transform: none; widows: 2; word-spacing: 0px; -webkit-text-stroke-width: 0px; white-space: normal; background-color: rgb(251, 251, 251); text-decoration-thickness: initial; text-decoration-style: initial; text-decoration-color: initial; display: inline !important; float: none;&quot;&gt;return false&lt;/span&gt;" style="strokeWidth=NaN;html=1;shape=mxgraph.flowchart.terminator;whiteSpace=wrap;rounded=1;shadow=1;strokeColor=#0F0F0F;align=center;verticalAlign=middle;spacing=9;arcSize=9;fontFamily=Helvetica;fontSize=16.7;fontColor=default;fillColor=default;" vertex="1" parent="1">
          <mxGeometry x="-7560" y="-3160" width="100" height="60" as="geometry" />
        </mxCell>
        <mxCell id="vujtRCiMRTFm4s1cb2ud-34" value="Is the key NO?" style="html=1;overflow=block;blockSpacing=1;whiteSpace=wrap;rhombus;fontSize=16.7;spacing=9;strokeColor=#0F0F0F;rounded=1;absoluteArcSize=1;arcSize=9;fillColor=#FFE599;strokeWidth=NaN;lucidId=6S2EEeG~vxge;shadow=1;align=center;verticalAlign=middle;fontFamily=Helvetica;fontColor=default;" vertex="1" parent="1">
          <mxGeometry x="-7330" y="-2997.5" width="120" height="90" as="geometry" />
        </mxCell>
        <mxCell id="vujtRCiMRTFm4s1cb2ud-35" value="" style="endArrow=classic;html=1;rounded=0;exitX=1;exitY=0.5;exitDx=0;exitDy=0;entryX=0;entryY=0.5;entryDx=0;entryDy=0;" edge="1" parent="1" source="vujtRCiMRTFm4s1cb2ud-34" target="vujtRCiMRTFm4s1cb2ud-36">
          <mxGeometry width="50" height="50" relative="1" as="geometry">
            <mxPoint x="-7500" y="-2910" as="sourcePoint" />
            <mxPoint x="-7060" y="-2950" as="targetPoint" />
          </mxGeometry>
        </mxCell>
        <mxCell id="vujtRCiMRTFm4s1cb2ud-37" value="&lt;b&gt;Yes&lt;/b&gt;" style="edgeLabel;html=1;align=center;verticalAlign=middle;resizable=0;points=[];" vertex="1" connectable="0" parent="vujtRCiMRTFm4s1cb2ud-35">
          <mxGeometry x="-0.0162" y="1" relative="1" as="geometry">
            <mxPoint as="offset" />
          </mxGeometry>
        </mxCell>
        <mxCell id="vujtRCiMRTFm4s1cb2ud-36" value="&lt;font style=&quot;font-size: 11px;&quot;&gt;Is NO assigned already?&lt;/font&gt;" style="html=1;overflow=block;blockSpacing=1;whiteSpace=wrap;rhombus;fontSize=16.7;spacing=9;strokeColor=#0F0F0F;rounded=1;absoluteArcSize=1;arcSize=9;fillColor=#FFE599;strokeWidth=NaN;lucidId=6S2EEeG~vxge;shadow=1;align=center;verticalAlign=middle;fontFamily=Helvetica;fontColor=default;" vertex="1" parent="1">
          <mxGeometry x="-7060" y="-2997.5" width="120" height="90" as="geometry" />
        </mxCell>
      </root>
    </mxGraphModel>
  </diagram>
</mxfile>
